<?xml version="1.0" encoding="UTF-8" standalone="no"?>
<!-- Created with Inkscape (http://www.inkscape.org/) -->

<svg
   width="121.31214mm"
   height="66.575012mm"
   viewBox="0 0 121.31214 66.575012"
   version="1.1"
   id="svg1"
   xmlns="http://www.w3.org/2000/svg"
   xmlns:svg="http://www.w3.org/2000/svg">
  <defs
     id="defs1" />
  <g
     id="layer1"
     transform="translate(-35.758314,-118.58191)">
    <text
       xml:space="preserve"
       style="font-style:normal;font-variant:normal;font-weight:normal;font-stretch:normal;font-size:41.3892px;font-family:Stencil;-inkscape-font-specification:'Stencil, Normal';font-variant-ligatures:normal;font-variant-caps:normal;font-variant-numeric:normal;font-variant-east-asian:normal;text-align:start;writing-mode:lr-tb;direction:ltr;text-anchor:start;fill:#000000;stroke-width:0.485791;stroke-dasharray:none"
       x="35.546101"
       y="159.06839"
       id="text21"
       transform="scale(1.0059701,0.99406533)"><tspan
         id="tspan21"
         style="stroke-width:0.485793"
         x="35.546101"
         y="159.06839">A</tspan></text>
    <text
       xml:space="preserve"
       style="font-style:normal;font-variant:normal;font-weight:normal;font-stretch:normal;font-size:65.8641px;font-family:Stencil;-inkscape-font-specification:'Stencil, Normal';font-variant-ligatures:normal;font-variant-caps:normal;font-variant-numeric:normal;font-variant-east-asian:normal;text-align:start;writing-mode:lr-tb;direction:ltr;text-anchor:start;fill:#000000;stroke-width:0.773058;stroke-dasharray:none"
       x="44.306751"
       y="176.85869"
       id="text22"
       transform="scale(1.1212186,0.89188673)"><tspan
         id="tspan22"
         style="stroke-width:0.773061"
         x="44.306751"
         y="176.85869">V</tspan></text>
    <text
       xml:space="preserve"
       style="font-style:normal;font-variant:normal;font-weight:normal;font-stretch:normal;font-size:41.3892px;font-family:Stencil;-inkscape-font-specification:'Stencil, Normal';font-variant-ligatures:normal;font-variant-caps:normal;font-variant-numeric:normal;font-variant-east-asian:normal;text-align:start;writing-mode:lr-tb;direction:ltr;text-anchor:start;fill:#000000;stroke-width:0.485791;stroke-dasharray:none"
       x="78.580635"
       y="158.73828"
       id="text23"
       transform="scale(1.0059701,0.99406533)"><tspan
         id="tspan23"
         style="stroke-width:0.485793"
         x="78.580635"
         y="158.73828">A</tspan></text>
    <text
       xml:space="preserve"
       style="font-style:normal;font-variant:normal;font-weight:normal;font-stretch:normal;font-size:41.3892px;font-family:Stencil;-inkscape-font-specification:'Stencil, Normal';font-variant-ligatures:normal;font-variant-caps:normal;font-variant-numeric:normal;font-variant-east-asian:normal;text-align:start;writing-mode:lr-tb;direction:ltr;text-anchor:start;fill:#000000;stroke-width:0.485791;stroke-dasharray:none"
       x="104.95242"
       y="158.53459"
       id="text24"
       transform="scale(1.0059701,0.99406533)"><tspan
         id="tspan24"
         style="stroke-width:0.485793"
         x="104.95242"
         y="158.53459">N</tspan></text>
    <text
       xml:space="preserve"
       style="font-style:normal;font-variant:normal;font-weight:normal;font-stretch:normal;font-size:41.3892px;font-family:Stencil;-inkscape-font-specification:'Stencil, Normal';font-variant-ligatures:normal;font-variant-caps:normal;font-variant-numeric:normal;font-variant-east-asian:normal;text-align:start;writing-mode:lr-tb;direction:ltr;text-anchor:start;fill:#000000;stroke-width:0.485791;stroke-dasharray:none"
       x="132.39204"
       y="158.91208"
       id="text25"
       transform="scale(1.0059701,0.99406533)"><tspan
         id="tspan25"
         style="stroke-width:0.485793"
         x="132.39204"
         y="158.91208">t</tspan></text>
    <text
       xml:space="preserve"
       style="font-style:normal;font-variant:normal;font-weight:normal;font-stretch:normal;font-size:25.8682px;font-family:Stencil;-inkscape-font-specification:'Stencil, Normal';font-variant-ligatures:normal;font-variant-caps:normal;font-variant-numeric:normal;font-variant-east-asian:normal;text-align:start;writing-mode:lr-tb;direction:ltr;text-anchor:start;fill:#000000;stroke-width:0.485791;stroke-dasharray:none"
       x="67.784332"
       y="185.92128"
       id="text26"
       transform="scale(1.0059701,0.99406533)"><tspan
         id="tspan26"
         style="stroke-width:0.485793"
         x="67.784332"
         y="185.92128">par</tspan></text>
    <path
       id="text27"
       style="font-style:normal;font-variant:normal;font-weight:normal;font-stretch:normal;font-size:33.4712px;font-family:Stencil;-inkscape-font-specification:'Stencil, Normal';font-variant-ligatures:normal;font-variant-caps:normal;font-variant-numeric:normal;font-variant-east-asian:normal;text-align:start;writing-mode:lr-tb;direction:ltr;text-anchor:start;fill:#000000;stroke-width:0.628571;stroke-dasharray:none"
       transform="scale(1.0958458,0.91253712)"
       d="m 114.10498,180.00505 v 19.20303 c 0,0.42493 -0.0818,0.73048 -0.24521,0.9157 -0.0763,0.10896 -0.15292,0.17967 -0.22919,0.21236 -0.0763,0.0218 -0.32675,0.087 -0.75167,0.19594 -0.52299,0.11985 -0.78422,0.4193 -0.78422,0.89871 0,0.29418 0.11963,0.51795 0.35934,0.67049 0.25059,0.14164 0.61557,0.21236 1.09497,0.21236 h 0.53948 7.289 0.53947 c 0.4903,0 0.83892,-0.0658 1.04594,-0.19651 0.28328,-0.17432 0.42488,-0.40306 0.42488,-0.68634 0,-0.47941 -0.2617,-0.77886 -0.78469,-0.89871 -0.42492,-0.10896 -0.67541,-0.17415 -0.75167,-0.19594 -0.0763,-0.0327 -0.15805,-0.1034 -0.24522,-0.21236 -0.16343,-0.18522 -0.24474,-0.49077 -0.24474,-0.9157 v -19.20303 z m 8.61269,0 v 1.9775 c 0.5012,0.29418 0.89889,0.66988 1.19307,1.12749 0.46851,0.7409 0.78441,1.61828 0.94785,2.63157 l 0.16363,0.99668 c 0.0545,0.31597 0.16897,0.56681 0.3433,0.75204 0.18522,0.17433 0.41374,0.26106 0.68613,0.26106 0.28328,0 0.51227,-0.0978 0.6866,-0.29391 0.18523,-0.19612 0.27775,-0.45249 0.27775,-0.76846 v -6.68397 z m -14.16539,7.11832 c -6.3e-4,7e-5 -7.4e-4,4.7e-4 -9.4e-4,5.6e-4 l 4.7e-4,5.7e-4 c 2.3e-4,-2.9e-4 2.4e-4,-9.1e-4 4.7e-4,-0.001 z" />
    <path
       style="fill:#000000;stroke-width:0.264999;stroke-dasharray:none"
       d="m 89.180793,118.95243 3.352663,-0.0671"
       id="path27" />
    <path
       style="fill:#000000;stroke-width:0.264999;stroke-dasharray:none"
       d="m 90.015085,118.5819 2.631467,0.0593 1.227968,0.0598 62.89593,1.59251 -64.337573,1.42488 -0.519663,0.0671 -0.385556,0.067 -0.502902,0.16763 -0.653766,0.11735"
       id="path28" />
    <path
       style="fill:#000000;stroke-width:0.264999;stroke-dasharray:none"
       d="m 123.09044,164.40732 v 1.77802 l -65.158401,-0.28448"
       id="path33" />
  </g>
</svg>
